<?xml version="1.0" encoding="utf-8"?><svg version="1.1" preserveAspectRatio="xMidYMid meet" xmlns="http://www.w3.org/2000/svg" xmlns:xlink="http://www.w3.org/1999/xlink" x="0px" y="0px" width="646.5px" height="363px" viewBox="0 0 646.5 363" enable-background="new 0 0 646.5 363" xml:space="preserve"><defs><style xmlns="http://www.w3.org/2000/svg">* { font-family: "Helvetica, Arial"; }</style><marker id="undefined" viewBox="0 0 15 15" refX="0" refY="5" fill="#000000" markerUnits="strokeWidth" markerWidth="14" markerHeight="13" orient="auto"><path d="M 0 0 L 10 5 L 0 10 z"></path></marker><marker id="arrow-generic" viewBox="0 0 15 15" refX="0" refY="5" fill="#000000" markerUnits="strokeWidth" markerWidth="14" markerHeight="13" orient="auto"><path d="M 0 0 L 10 5 L 0 10 z"></path></marker><marker id="arrow-black" viewBox="0 0 15 15" refX="0" refY="5" fill="#000000" markerUnits="strokeWidth" markerWidth="14" markerHeight="13" orient="auto"><path d="M 0 0 L 10 5 L 0 10 z"></path></marker><marker id="arrow-1" viewBox="0 0 15 15" refX="0" refY="5" fill="#F8E100" markerUnits="strokeWidth" markerWidth="14" markerHeight="13" orient="auto"><path d="M 0 0 L 10 5 L 0 10 z"></path></marker><marker id="arrow-2" viewBox="0 0 15 15" refX="0" refY="5" fill="#3A4ABA" markerUnits="strokeWidth" markerWidth="14" markerHeight="13" orient="auto"><path d="M 0 0 L 10 5 L 0 10 z"></path></marker><marker id="arrow-3" viewBox="0 0 15 15" refX="0" refY="5" fill="#ED2726" markerUnits="strokeWidth" markerWidth="14" markerHeight="13" orient="auto"><path d="M 0 0 L 10 5 L 0 10 z"></path></marker><marker id="arrow-4" viewBox="0 0 15 15" refX="0" refY="5" fill="#B4519E" markerUnits="strokeWidth" markerWidth="14" markerHeight="13" orient="auto"><path d="M 0 0 L 10 5 L 0 10 z"></path></marker><marker id="arrow-5" viewBox="0 0 15 15" refX="0" refY="5" fill="#E29626" markerUnits="strokeWidth" markerWidth="14" markerHeight="13" orient="auto"><path d="M 0 0 L 10 5 L 0 10 z"></path></marker><marker id="arrow-6" viewBox="0 0 15 15" refX="0" refY="5" fill="#097C16" markerUnits="strokeWidth" markerWidth="14" markerHeight="13" orient="auto"><path d="M 0 0 L 10 5 L 0 10 z"></path></marker><marker id="arrow-7" viewBox="0 0 15 15" refX="0" refY="5" fill="#6B343A" markerUnits="strokeWidth" markerWidth="14" markerHeight="13" orient="auto"><path d="M 0 0 L 10 5 L 0 10 z"></path></marker><marker id="arrow-8" viewBox="0 0 15 15" refX="0" refY="5" fill="#000000" markerUnits="strokeWidth" markerWidth="14" markerHeight="13" orient="auto"><path d="M 0 0 L 10 5 L 0 10 z"></path></marker><marker id="arrow-9" viewBox="0 0 15 15" refX="0" refY="5" fill="#F8E100" markerUnits="strokeWidth" markerWidth="14" markerHeight="13" orient="auto"><path d="M 0 0 L 10 5 L 0 10 z"></path></marker><marker id="arrow-10" viewBox="0 0 15 15" refX="0" refY="5" fill="#3A4ABA" markerUnits="strokeWidth" markerWidth="14" markerHeight="13" orient="auto"><path d="M 0 0 L 10 5 L 0 10 z"></path></marker><marker id="arrow-11" viewBox="0 0 15 15" refX="0" refY="5" fill="#ED2726" markerUnits="strokeWidth" markerWidth="14" markerHeight="13" orient="auto"><path d="M 0 0 L 10 5 L 0 10 z"></path></marker><marker id="arrow-12" viewBox="0 0 15 15" refX="0" refY="5" fill="#B4519E" markerUnits="strokeWidth" markerWidth="14" markerHeight="13" orient="auto"><path d="M 0 0 L 10 5 L 0 10 z"></path></marker><marker id="arrow-13" viewBox="0 0 15 15" refX="0" refY="5" fill="#E29626" markerUnits="strokeWidth" markerWidth="14" markerHeight="13" orient="auto"><path d="M 0 0 L 10 5 L 0 10 z"></path></marker><marker id="arrow-14" viewBox="0 0 15 15" refX="0" refY="5" fill="#097C16" markerUnits="strokeWidth" markerWidth="14" markerHeight="13" orient="auto"><path d="M 0 0 L 10 5 L 0 10 z"></path></marker><marker id="arrow-15" viewBox="0 0 15 15" refX="0" refY="5" fill="#6B343A" markerUnits="strokeWidth" markerWidth="14" markerHeight="13" orient="auto"><path d="M 0 0 L 10 5 L 0 10 z"></path></marker></defs>
<path fill="#D3D3D3" stroke="#000000" stroke-width="0.5" stroke-miterlimit="10" d="M0.25,40.031
	c0-22.136,17.942-40.08,40.077-40.08h566.436c22.134,0,40.082,17.944,40.082,40.08v283.1c0,22.137-17.948,40.08-40.082,40.08H40.327
	c-22.135,0-40.077-17.943-40.077-40.08V40.031L0.25,40.031z"/>
<rect x="31.655" y="31.349" fill="#497ADB" stroke="#000000" stroke-width="0.5" stroke-miterlimit="10" width="585.929" height="300.458"/>
<path fill="#333333" stroke="#000000" stroke-width="0.25" stroke-miterlimit="10" d="M617.876,309.558
	c0,0,7.37,9.896,13.396,18.354c6.019,8.456-13.513,28.248-23.5,19.182c-9.979-9.071-15.716-16.371-15.716-16.371
	s1.495-10.052,8.828-15.979C608.207,308.812,617.876,309.558,617.876,309.558z"/>
<path fill="#333333" stroke="#000000" stroke-width="0.25" stroke-miterlimit="10" d="M597.314,31.184c0,0,9.02-7.013,16.732-12.749
	c7.71-5.737,26.307,12.099,18.097,21.52c-8.211,9.432-14.854,14.877-14.854,14.877s-9.314-1.221-14.909-7.937
	C596.785,40.187,597.314,31.184,597.314,31.184z"/>
<path fill="#333333" stroke="#000000" stroke-width="0.25" stroke-miterlimit="10" d="M31.553,54.158c0,0-8.461-9.124-15.402-16.942
	C9.2,29.404,27.373,7.997,38.433,16.052c11.049,8.062,17.592,14.764,17.592,14.764s-0.596,10.08-7.539,16.635
	C41.527,54.003,31.553,54.158,31.553,54.158z"/>
<path fill="#333333" stroke="#000000" stroke-width="0.25" stroke-miterlimit="10" d="M55.499,331.564
	c0,0-8.992,8.681-16.703,15.817c-7.712,7.134-29.463-10.809-21.588-22.096c7.884-11.282,14.478-17.99,14.478-17.99
	s10.121,0.435,16.796,7.324C55.177,321.518,55.499,331.564,55.499,331.564z"/>
<polyline fill="#355D9E" stroke="#000000" stroke-width="0.3" stroke-miterlimit="10" points="617.479,54.88 609.424,63.132 
	609.424,299.438 618.496,310.121 "/>
<polyline fill="#355D9E" stroke="#000000" stroke-width="0.3" stroke-miterlimit="10" points="597.212,31.349 586.211,40.701 
	343.948,40.701 342.452,31.349 "/>
<polyline fill="#355D9E" stroke="#000000" stroke-width="0.3" stroke-miterlimit="10" points="306.507,31.263 305.2,40.614 
	65.907,40.614 65.907,40.614 56.912,32.35 "/>
<polyline fill="#355D9E" stroke="#000000" stroke-width="0.3" stroke-miterlimit="10" points="31.655,54.174 42.123,64.801 
	42.123,296.368 31.655,307.482 "/>
<polyline fill="#355D9E" stroke="#000000" stroke-width="0.3" stroke-miterlimit="10" points="55.307,331.809 66.325,323.215 
	303.92,323.215 306.571,331.809 "/>
<polyline fill="#355D9E" stroke="#000000" stroke-width="0.3" stroke-miterlimit="10" points="342.566,331.809 344.548,323.215 
	585.126,323.215 593.084,331.809 "/>
<path id="spot18_1_" fill="#6D6E70" d="M624.587,112.312c0-1.887,1.527-3.413,3.41-3.413c1.881,0,3.408,1.524,3.408,3.413
	c0,1.88-1.527,3.406-3.408,3.406C626.115,115.718,624.587,114.191,624.587,112.312z"/>
<path id="spot17_1_" fill="#6D6E70" d="M624.587,184.397c0-1.881,1.527-3.408,3.41-3.408c1.881,0,3.408,1.527,3.408,3.408
	c0,1.886-1.527,3.41-3.408,3.41C626.115,187.808,624.587,186.283,624.587,184.397z"/>
<circle id="spot16_1_" fill="#6D6E70" cx="627.996" cy="254.955" r="3.409"/>
<path id="spot15_1_" fill="#6D6E70" d="M533.162,342.631c0-1.881,1.521-3.405,3.407-3.405c1.884,0,3.401,1.524,3.401,3.405
	c0,1.889-1.521,3.41-3.401,3.41C534.688,346.041,533.162,344.518,533.162,342.631z"/>
<path id="spot14_1_" fill="#6D6E70" d="M462.46,342.631c0-1.881,1.529-3.405,3.413-3.405c1.879,0,3.407,1.524,3.407,3.405
	c0,1.889-1.526,3.41-3.407,3.41C463.989,346.041,462.46,344.518,462.46,342.631z"/>
<path id="spot13_1_" fill="#6D6E70" d="M392.18,342.631c0-1.881,1.526-3.405,3.416-3.405c1.879,0,3.405,1.524,3.405,3.405
	c0,1.889-1.526,3.41-3.405,3.41C393.708,346.041,392.18,344.518,392.18,342.631z"/>
<path id="spot12_1_" fill="#6D6E70" d="M247.583,342.631c0-1.881,1.527-3.405,3.414-3.405c1.875,0,3.402,1.524,3.402,3.405
	c0,1.889-1.527,3.41-3.402,3.41C249.109,346.041,247.583,344.518,247.583,342.631z"/>
<path id="spot11_1_" fill="#6D6E70" d="M177.306,342.631c0-1.881,1.528-3.405,3.414-3.405c1.875,0,3.402,1.524,3.402,3.405
	c0,1.889-1.527,3.41-3.402,3.41C178.833,346.041,177.306,344.518,177.306,342.631z"/>
<path id="spot10_1_" fill="#6D6E70" d="M106.884,342.631c0-1.881,1.526-3.405,3.413-3.405c1.875,0,3.402,1.524,3.402,3.405
	c0,1.889-1.527,3.41-3.402,3.41C108.412,346.041,106.884,344.518,106.884,342.631z"/>
<path id="spot9_1_" fill="#6D6E70" d="M16.701,254.955c0-1.879,1.528-3.406,3.414-3.406c1.881,0,3.408,1.527,3.408,3.406
	c0,1.885-1.527,3.412-3.408,3.412C18.229,258.367,16.701,256.84,16.701,254.955z"/>
<path id="spot8_1_" fill="#6D6E70" d="M16.701,184.397c0-1.881,1.528-3.408,3.414-3.408c1.881,0,3.408,1.527,3.408,3.408
	c0,1.886-1.527,3.41-3.408,3.41C18.229,187.808,16.701,186.283,16.701,184.397z"/>
<path id="spot7_1_" fill="#6D6E70" d="M16.701,112.312c0-1.887,1.528-3.413,3.414-3.413c1.881,0,3.408,1.524,3.408,3.413
	c0,1.88-1.527,3.406-3.408,3.406C18.229,115.718,16.701,114.191,16.701,112.312z"/>
<path id="spot6_1_" fill="#6D6E70" d="M106.884,22.129c0-1.887,1.526-3.414,3.413-3.414c1.875,0,3.402,1.527,3.402,3.414
	c0,1.884-1.527,3.41-3.402,3.41C108.412,25.54,106.884,24.013,106.884,22.129z"/>
<path id="spot5_1_" fill="#6D6E70" d="M177.306,22.129c0-1.887,1.528-3.414,3.414-3.414c1.875,0,3.402,1.527,3.402,3.414
	c0,1.884-1.527,3.41-3.402,3.41C178.833,25.54,177.306,24.013,177.306,22.129z"/>
<path id="spot4_1_" fill="#6D6E70" d="M247.583,22.129c0-1.887,1.527-3.414,3.414-3.414c1.875,0,3.402,1.527,3.402,3.414
	c0,1.884-1.527,3.41-3.402,3.41C249.109,25.54,247.583,24.013,247.583,22.129z"/>
<path id="spot3_1_" fill="#6D6E70" d="M392.18,22.129c0-1.887,1.526-3.414,3.411-3.414c1.884,0,3.406,1.527,3.406,3.414
	c0,1.884-1.522,3.41-3.406,3.41C393.708,25.54,392.18,24.013,392.18,22.129z"/>
<circle id="spot2_1_" fill="#6D6E70" cx="465.869" cy="22.129" r="3.409"/>
<ellipse id="spot1_1_" fill="#6D6E70" cx="536.567" cy="22.129" rx="3.401" ry="3.414"/>
<line id="line_1_" opacity="0.5" fill="none" stroke="#000000" stroke-width="0.25" stroke-miterlimit="10" enable-background="new    " x1="465.873" y1="323.207" x2="465.873" y2="40.896"/>
<circle id="outerdot_1_" fill="#FFFFFF" stroke="#818282" stroke-width="0.25" stroke-miterlimit="10" cx="465.873" cy="184.397" r="6.725"/>
<path id="innerdot_1_" fill="#868686" stroke="#FFFFFF" stroke-width="0.25" stroke-miterlimit="10" d="M463.402,184.397
	c0-1.358,1.104-2.464,2.469-2.464c1.357,0,2.467,1.104,2.467,2.464c0,1.354-1.104,2.467-2.467,2.467
	S463.402,185.756,463.402,184.397z"/>
<g opacity="0.1">
	<path fill="#08556D" d="M228.975,166.55c3.231,0,6.063,0.4,9.773,1.516l-1.237,4.587c-4.269-0.997-5.983-1.197-8.097-1.197
		c-5.026,0-6.742,3.471-6.742,8.856c0,5.783,1.716,9.294,6.742,9.294c2.114,0,3.829-0.198,8.097-1.196l1.237,4.588
		c-3.71,1.076-6.542,1.476-9.773,1.476c-9.533,0-12.086-6.383-12.086-14.161C216.889,172.653,219.442,166.55,228.975,166.55z"/>
	<path fill="#08556D" d="M246.807,194.074h-5.186v-27.923h5.186v10.571h0.079c1.716-1.834,3.909-2.992,6.503-2.992
		c3.988,0,5.983,2.593,5.983,6.702v13.642h-5.186v-12.445c0-2.314-0.877-3.59-3.191-3.59c-1.636,0-3.191,0.878-4.188,1.516V194.074z
		"/>
	<path fill="#08556D" d="M264.199,178.796l-0.757-4.148c2.832-0.559,5.823-0.917,8.217-0.917c5.066,0,7.858,1.316,7.858,6.702
		v13.642h-5.186v-1.993c-0.04,0-0.04,0-0.08,0c-1.716,1.756-3.391,2.394-5.904,2.394c-3.99,0-6.183-2.674-6.183-6.144
		c0-4.867,4.467-6.223,8.377-6.223h3.79v-1.396c0-2.034-1.276-2.673-3.87-2.673C268.866,178.039,267.071,178.198,264.199,178.796z
		 M274.332,185.219h-3.47c-2.354,0-3.511,0.839-3.511,2.673c0,1.756,1.396,2.594,3.111,2.594c1.636,0,3.152-0.678,3.87-1.236
		V185.219z"/>
	<path fill="#08556D" d="M282.908,166.151h5.186v27.923h-5.186V166.151z"/>
	<path fill="#08556D" d="M296.671,181.11l7.499-6.981h6.263l-7.26,7.181l7.659,12.764h-6.104l-5.186-9.812l-2.871,2.631v7.182
		h-5.187v-27.923h5.187V181.11L296.671,181.11z"/>
	<path fill="#08556D" d="M311.391,174.129h5.784l4.547,14.56h0.08l4.429-14.56h5.504l-7.06,20.664
		c-1.916,5.703-4.469,7.659-8.897,7.659c-1.078,0-2.553-0.119-3.59-0.359l0.479-4.27c0.599,0.121,1.476,0.201,1.915,0.201
		c1.915,0,3.431-1.478,4.189-3.67L311.391,174.129z"/>
	<path fill="#08556D" d="M335.165,193.116l0.519-2.473c4.069,0.996,6.78,1.197,9.017,1.197c4.587,0,6.423-2.515,6.423-4.906
		c0-3.67-4.229-4.628-7.021-5.386c-4.27-1.077-8.537-3.431-8.537-8.019c0-5.026,4.028-6.981,9.136-6.981
		c2.952,0,5.743,0.4,8.975,1.357l-0.677,2.472c-4.07-0.997-6.062-1.196-8.298-1.196c-4.589,0-6.024,2.114-6.024,4.428
		c0,3.51,4.508,4.787,7.381,5.465c4.27,0.958,8.178,2.953,8.178,7.619c0,5.187-4.068,7.779-9.533,7.779
		C341.747,194.474,338.396,194.074,335.165,193.116z"/>
	<path fill="#08556D" d="M360.695,176.164h-3.151v-1.835l3.151-0.2l0.359-5.585h2.432v5.585h5.904v2.035h-5.904v11.608
		c0,2.91,0.8,4.427,3.631,4.427c0.64,0,1.277-0.04,2.193-0.199l0.28,2.194c-1.039,0.16-2.475,0.279-3.352,0.279
		c-3.87,0-5.546-1.596-5.546-6.264v-12.046H360.695z"/>
	<path fill="#08556D" d="M376.852,166.95v4.746h-2.793v-4.746H376.852z M376.852,174.129v19.945h-2.793v-19.945H376.852z"/>
	<path fill="#08556D" d="M390.852,173.73c2.476,0,4.271,0.278,6.663,0.877l-0.52,2.274c-3.111-0.798-4.786-0.798-6.144-0.798
		c-4.748,0-6.582,3.43-6.582,8.02c0,4.586,1.834,8.018,6.582,8.018c1.356,0,3.031,0,6.144-0.799l0.52,2.275
		c-2.393,0.598-4.188,0.877-6.663,0.877c-7.061,0-9.533-4.229-9.533-10.371C381.318,177.959,383.791,173.73,390.852,173.73z"/>
	<path fill="#08556D" d="M403.658,182.865l10.61-8.736h3.471l-7.738,6.741l8.137,13.204h-3.311l-6.782-11.647l-4.387,3.551v8.098
		h-2.794v-27.923h2.794V182.865L403.658,182.865z"/>
	<path fill="#08556D" d="M428.47,194.474c-3.03,0-5.943-0.277-8.336-0.877l0.52-2.273c3.149,0.798,6.182,0.877,7.499,0.877
		c4.269,0,4.666-2.674,4.666-3.469c0-1.479-0.877-2.674-5.025-3.513c-4.069-0.759-7.261-2.073-7.261-6.104
		c0-3.55,2.514-5.385,7.142-5.385c3.031,0,5.385,0.278,7.779,0.877l-0.521,2.274c-3.151-0.798-5.783-0.877-7.1-0.877
		c-4.189,0-4.508,2.353-4.508,3.031c0,1.476,0.676,2.751,4.786,3.59c4.388,0.917,7.499,2.114,7.499,5.944
		C435.61,192.358,433.098,194.474,428.47,194.474z"/>
</g>
<path fill="#333333" stroke="#000000" stroke-width="0.25" stroke-miterlimit="10" d="M306.686,31.747c0,0-0.649-11.306,6.174-17.72
	c6.823-6.414,15.542-6.988,23.492-0.632c7.948,6.356,6.241,17.817,6.241,17.817s-8.836,10.052-17.928,9.67
	C315.58,40.504,306.686,31.747,306.686,31.747z"/>
<path fill="#333333" stroke="#000000" stroke-width="0.25" stroke-miterlimit="10" d="M324.549,321.789
	c9.092-0.382,17.928,9.67,17.928,9.67s1.707,11.462-6.242,17.817c-7.948,6.354-16.667,5.781-23.49-0.633
	c-6.823-6.415-6.175-17.721-6.175-17.721S315.463,322.167,324.549,321.789z"/>
<path  fill="none" stroke="#000000" stroke-width="1" stroke-dasharray="5" d="M111 24 Q 111 183.5 111 343"></path><path  fill="none" stroke="#000000" stroke-width="1" stroke-dasharray="5" d="M182 24 Q 182 183.5 182 343"></path><path  fill="none" stroke="#000000" stroke-width="1" stroke-dasharray="5" d="M251 24 Q 251.5 184.5 252 345"></path><path  fill="none" stroke="#000000" stroke-width="1" stroke-dasharray="5" d="M327 46 Q 326.5 183.5 326 321"></path><path  fill="none" stroke="#000000" stroke-width="1" stroke-dasharray="5" d="M397 25 Q 396.5 184 396 343"></path><path  fill="none" stroke="#000000" stroke-width="1" stroke-dasharray="5" d="M537 25 Q 537 184 537 343"></path><path  fill="none" stroke="#000000" stroke-width="1" stroke-dasharray="5" d="M22 114 Q 324.5 113.5 627 113"></path><path  fill="none" stroke="#000000" stroke-width="1" stroke-dasharray="5" d="M22 185 Q 324.5 185 627 185"></path><path  fill="none" stroke="#000000" stroke-width="1" stroke-dasharray="5" d="M23 256 Q 326 256 629 256"></path><g transform="translate(172.859375,175)">
<path fill="#F8E100" d="M19.176,9.591c0,5.297-4.293,9.587-9.587,9.587C4.288,19.179,0,14.888,0,9.591C0,4.294,4.288,0,9.588,0
	C14.882,0,19.176,4.294,19.176,9.591z"/>
<path fill="#F2F2F2" d="M8.643,0.99c0.334,0.581-0.697,1.8-2.302,2.724C4.734,4.64,3.164,4.918,2.829,4.338
	C2.495,3.757,3.524,2.538,5.131,1.613C6.736,0.689,8.308,0.41,8.643,0.99z"/>
<path fill="#F2F2F2" d="M3.295,6.837c0.298,0.519,0.13,1.174-0.376,1.466C2.414,8.594,1.762,8.409,1.464,7.891
	C1.165,7.373,1.333,6.717,1.839,6.426C2.345,6.135,2.997,6.319,3.295,6.837z"/>
<g>
	<path fill="#231F20" d="M6.977,8.046L6.569,6.723c0.97-0.368,1.976-0.845,2.587-1.349h1.168v8.396H8.725V7.249L6.977,8.046z"/>
</g>
</g><g transform="translate(456.890625,175)">
    <path fill="#3A4ABA" d="M19.176,9.591c0,5.297-4.293,9.587-9.582,9.587C4.294,19.179,0,14.888,0,9.591S4.288,0,9.588,0 C14.882,0,19.176,4.294,19.176,9.591z"/>
	<path fill="#FFFFFF" d="M7.21,7.202L6.731,5.926c1.006-0.403,1.731-0.613,2.797-0.613c1.886,0,2.779,1.118,2.779,2.526 c0,1.717-1.233,3.039-3.318,4.498v0.022h3.443v1.411H6.731V12.25c3.234-2.059,3.899-3.188,3.899-4.068 c0-1.262-0.958-1.411-1.474-1.411C8.605,6.77,8.079,6.844,7.21,7.202z"/>
    <path fill="#F2F2F2" d="M8.643,0.99c0.334,0.58-0.697,1.8-2.302,2.724C4.734,4.64,3.164,4.918,2.829,4.338 c-0.334-0.581,0.695-1.8,2.302-2.726C6.736,0.689,8.308,0.41,8.643,0.99z"/>
    <path fill="#F2F2F2" d="M3.295,6.837c0.298,0.519,0.13,1.174-0.376,1.466C2.414,8.594,1.762,8.409,1.464,7.891 C1.165,7.373,1.333,6.717,1.839,6.426C2.345,6.135,2.997,6.319,3.295,6.837z"/>
</g><g transform="translate(135.921875,174)">
<path fill="#ED2726" d="M19.176,9.59c0,5.298-4.293,9.588-9.582,9.588C4.288,19.179,0,14.888,0,9.59C0,4.293,4.288,0,9.594,0
	C14.882,0,19.176,4.293,19.176,9.59z"/>
<g>
	<path fill="#FFFFFF" d="M10.863,9.444c1.15,0.281,1.688,1.129,1.688,2.06c0,1.542-1.113,2.391-3.036,2.391
		c-1.042,0-1.928-0.136-2.904-0.603l0.473-1.213c0.796,0.356,1.558,0.503,2.33,0.503c1.204,0,1.509-0.698,1.509-1.165
		c0-0.771-0.562-1.152-1.641-1.152H8.181V8.941h1.03c1.209,0,1.516-0.662,1.516-1.249c0-0.491-0.342-1.058-1.312-1.058
		c-0.749,0-1.347,0.149-2.144,0.504L6.791,5.914c0.994-0.455,1.976-0.602,2.905-0.602c1.449,0,2.611,0.749,2.611,2.207
		c0,0.919-0.551,1.568-1.443,1.901V9.444L10.863,9.444z"/>
</g>
<path fill="#F2F2F2" d="M8.643,0.99c0.334,0.581-0.697,1.8-2.302,2.724C4.734,4.64,3.164,4.918,2.829,4.338
	C2.495,3.757,3.524,2.538,5.131,1.613C6.736,0.689,8.308,0.41,8.643,0.99z"/>
<path fill="#F2F2F2" d="M3.295,6.837c0.298,0.519,0.13,1.174-0.376,1.466C2.414,8.594,1.762,8.409,1.464,7.891
	C1.165,7.373,1.333,6.717,1.839,6.426C2.345,6.135,2.997,6.319,3.295,6.837z"/>
</g><g transform="translate(492.953125,174)">
<path fill="#B4519E" d="M19.176,9.591c0,5.297-4.293,9.587-9.582,9.587C4.288,19.179,0,14.888,0,9.591C0,4.294,4.288,0,9.594,0
	C14.882,0,19.176,4.294,19.176,9.591z"/>
<g>
	<path fill="#FFFFFF" d="M11.756,5.435v5.088h1.066v1.323h-1.066v1.926h-1.593v-1.926H6.39v-1.323
		c1.347-1.472,2.521-3.126,3.396-5.088H11.756z M10.163,10.522V7.507h-0.024c-0.677,1.226-1.276,2.024-2.12,3.017L10.163,10.522
		L10.163,10.522z"/>
</g>
<path fill="#F2F2F2" d="M8.643,0.99c0.334,0.581-0.697,1.8-2.302,2.724C4.734,4.64,3.164,4.918,2.829,4.338
	C2.495,3.757,3.524,2.538,5.131,1.613C6.736,0.689,8.308,0.41,8.643,0.99z"/>
<path fill="#F2F2F2" d="M3.295,6.837c0.298,0.519,0.13,1.174-0.376,1.466C2.414,8.594,1.762,8.409,1.464,7.891
	C1.165,7.373,1.333,6.717,1.839,6.426C2.345,6.135,2.997,6.319,3.295,6.837z"/>
</g><g transform="translate(102.984375,174)">
<path fill="#E29626" d="M19.168,9.59c0,5.298-4.287,9.588-9.582,9.588C4.288,19.179,0,14.888,0,9.59C0,4.293,4.288,0,9.587,0
	C14.881,0,19.168,4.293,19.168,9.59z"/>
<g>
	<path fill="#FFFFFF" d="M6.605,13.279l0.473-1.225C7.953,12.458,8.576,12.58,9.3,12.58c1.066,0,1.568-0.639,1.568-1.471
		c0-0.649-0.306-1.435-1.347-1.435c-0.492,0-0.958,0.194-1.324,0.587l-1.144-0.1l0.161-4.729h4.839v1.409H8.599L8.492,8.881
		l0.024,0.013c0.389-0.332,0.982-0.577,1.568-0.577c1.475,0,2.461,0.932,2.461,2.697c0,1.898-1.186,2.881-3.148,2.881
		C8.432,13.894,7.605,13.734,6.605,13.279z"/>
</g>
<path fill="#F2F2F2" d="M8.643,0.99c0.334,0.58-0.697,1.8-2.302,2.724C4.734,4.64,3.164,4.918,2.829,4.338
	c-0.334-0.581,0.695-1.8,2.302-2.726C6.736,0.689,8.308,0.41,8.643,0.99z"/>
<path fill="#F2F2F2" d="M3.295,6.837c0.298,0.519,0.13,1.174-0.376,1.466C2.414,8.594,1.762,8.409,1.464,7.891
	C1.165,7.373,1.333,6.717,1.839,6.426C2.345,6.135,2.997,6.319,3.295,6.837z"/>
</g><g transform="translate(527.015625,175)">
<path fill="#097C16" d="M19.168,9.591c0,5.298-4.293,9.589-9.582,9.589C4.282,19.179,0,14.889,0,9.591C0,4.294,4.282,0,9.587,0
	C14.875,0,19.168,4.294,19.168,9.591z"/>
<g>
	<path fill="#FFFFFF" d="M8.222,9.064C8.647,8.537,9.288,8.192,10,8.192c1.581,0,2.545,1.043,2.545,2.882
		c0,1.766-1.186,2.819-2.869,2.819c-2.228,0-3.073-1.827-3.073-3.801c0-3.739,1.677-4.781,3.641-4.781
		c0.797,0,1.408,0.123,2.043,0.346l-0.182,1.225c-0.736-0.183-1.238-0.246-1.73-0.246c-1.204,0-2.18,0.982-2.18,2.417L8.222,9.064z
		 M9.594,12.583c0.702,0,1.276-0.516,1.276-1.509c0-0.662-0.246-1.495-1.3-1.495c-0.515,0-0.91,0.281-1.228,0.662
		C8.246,11.382,8.432,12.583,9.594,12.583z"/>
</g>
<path fill="#F2F2F2" d="M8.643,0.99c0.334,0.58-0.697,1.8-2.302,2.724C4.734,4.64,3.164,4.918,2.829,4.338
	c-0.334-0.581,0.695-1.8,2.302-2.726C6.736,0.689,8.308,0.41,8.643,0.99z"/>
<path fill="#F2F2F2" d="M3.295,6.837c0.298,0.519,0.13,1.174-0.376,1.466C2.414,8.594,1.762,8.409,1.464,7.891
	C1.165,7.373,1.333,6.717,1.839,6.426C2.345,6.135,2.997,6.319,3.295,6.837z"/>
</g><g transform="translate(70.046875,175)">
<path fill="#6B343A" d="M19.176,9.59c0,5.298-4.293,9.587-9.582,9.587C4.288,19.178,0,14.888,0,9.59S4.288,0,9.594,0
	C14.882,0,19.176,4.293,19.176,9.59z"/>
<g>
	<path fill="#E5E5E4" d="M10.518,6.845H6.911V5.434h5.336v1.141c-1.156,2.009-2.33,4.191-2.821,7.195H7.647
		c0.372-2.183,1.581-4.964,2.869-6.901V6.845H10.518z"/>
</g>
<path fill="#F2F2F2" d="M8.643,0.99c0.334,0.581-0.697,1.8-2.302,2.724C4.734,4.64,3.164,4.918,2.829,4.338
	C2.495,3.757,3.524,2.539,5.131,1.613C6.736,0.689,8.308,0.41,8.643,0.99z"/>
<path fill="#F2F2F2" d="M3.295,6.837c0.298,0.519,0.13,1.174-0.376,1.466C2.414,8.594,1.762,8.41,1.464,7.892
	C1.165,7.373,1.333,6.717,1.839,6.426C2.345,6.135,2.997,6.319,3.295,6.837z"/>
</g><g transform="translate(561.078125,175)">
<path d="M19.176,9.597c0,5.294-4.3,9.588-9.587,9.588C4.288,19.185,0,14.891,0,9.597C0,4.296,4.288,0,9.588,0
	C14.876,0,19.176,4.296,19.176,9.597z"/>
<g>
	<path fill="#F7EFF1" d="M10.977,9.402c1.08,0.512,1.689,1.149,1.689,2.12c0,1.641-1.419,2.377-3.138,2.377
		c-1.629,0-3.048-0.649-3.048-2.207c0-1.006,0.646-1.656,1.677-2.072V9.597C7.288,9.169,6.726,8.531,6.726,7.549
		c0-1.494,1.395-2.229,2.904-2.229c1.42,0,2.791,0.736,2.791,2.146c0,0.933-0.539,1.458-1.442,1.91v0.027H10.977z M9.629,12.723
		c1.042,0,1.408-0.504,1.408-1.055c0-0.872-0.982-1.165-1.701-1.458c-0.628,0.245-1.215,0.649-1.215,1.312
		C8.121,12.121,8.534,12.723,9.629,12.723z M8.318,7.512c0,0.713,0.718,1.117,1.455,1.3c0.575-0.21,1.054-0.614,1.054-1.213
		c0-0.714-0.599-1.105-1.299-1.105C8.917,6.495,8.318,6.863,8.318,7.512z"/>
</g>
<path fill="#F2F2F2" d="M8.643,0.99c0.334,0.581-0.697,1.8-2.302,2.724C4.734,4.64,3.164,4.918,2.829,4.338
	C2.495,3.757,3.524,2.538,5.131,1.613C6.736,0.689,8.308,0.41,8.643,0.99z"/>
<path fill="#F2F2F2" d="M3.295,6.837c0.298,0.519,0.13,1.174-0.376,1.466C2.414,8.594,1.762,8.409,1.464,7.891
	C1.165,7.373,1.333,6.717,1.839,6.426C2.345,6.135,2.997,6.319,3.295,6.837z"/>
</g><g transform="translate(43.109375,175)">
<path fill="#F8E100" d="M19.176,9.591c0,5.297-4.3,9.587-9.588,9.587C4.288,19.179,0,14.888,0,9.591S4.288,0,9.587,0
	C14.875,0,19.176,4.294,19.176,9.591z"/>
<rect x="0.009" y="7.95" opacity="0.4" fill="#F2F2F2" enable-background="new    " width="4.662" height="3.972"/>
<rect x="14.514" y="7.95" opacity="0.4" fill="#F2F2F2" enable-background="new    " width="4.662" height="3.972"/>
<g>
	<path fill="#FFFFFF" d="M10.93,10.154c-0.414,0.517-1.067,0.86-1.762,0.86c-1.581,0-2.563-1.043-2.563-2.882
		c0-1.766,1.198-2.82,2.881-2.82c2.228,0,3.066,1.839,3.066,3.8c0,3.74-1.683,4.782-3.629,4.782c-0.796,0-1.414-0.123-2.06-0.346
		l0.198-1.212c0.73,0.17,1.221,0.245,1.725,0.245c1.204,0,2.187-0.981,2.168-2.416L10.93,10.154z M9.57,6.635
		c-0.695,0-1.275,0.504-1.275,1.497c0,0.662,0.245,1.495,1.299,1.495c0.501,0,0.91-0.282,1.229-0.662
		C10.917,7.827,10.736,6.635,9.57,6.635z"/>
</g>
<path fill="#F2F2F2" d="M8.643,0.99c0.334,0.579-0.697,1.8-2.302,2.724C4.734,4.64,3.164,4.918,2.829,4.338
	c-0.334-0.581,0.695-1.8,2.302-2.727C6.736,0.689,8.308,0.41,8.643,0.99z"/>
</g><g transform="translate(589.140625,175)">
<path fill="#3A4ABA" d="M19.176,9.591c0,5.297-4.294,9.587-9.588,9.587C4.288,19.179,0,14.888,0,9.591S4.288,0,9.587,0
	C14.881,0,19.176,4.294,19.176,9.591z"/>
<g>
	<path fill="#FFFFFF" d="M4.547,8.135L4.164,6.887C5.079,6.54,6.027,6.09,6.603,5.615h1.102v7.915H6.203V7.384L4.547,8.135z"/>
	<path fill="#FFFFFF" d="M8.85,9.546c0-2.22,0.564-3.988,2.924-3.988c2.355,0,2.914,1.77,2.914,3.988
		c0,2.243-0.559,4.104-2.914,4.104C9.416,13.649,8.85,11.789,8.85,9.546z M10.442,9.546c0,1.558,0.276,2.865,1.332,2.865
		c1.051,0,1.328-1.307,1.328-2.865c0-1.561-0.274-2.742-1.328-2.742C10.719,6.804,10.442,7.985,10.442,9.546z"/>
</g>
<path fill="#F2F2F2" d="M8.643,0.99c0.334,0.578-0.697,1.8-2.302,2.724C4.734,4.64,3.164,4.918,2.829,4.338
	c-0.334-0.581,0.695-1.8,2.302-2.728C6.736,0.689,8.308,0.41,8.643,0.99z"/>
<rect x="0.01" y="7.95" opacity="0.4" fill="#F2F2F2" enable-background="new    " width="4.317" height="3.972"/>
<rect x="15.121" y="7.95" opacity="0.4" fill="#F2F2F2" enable-background="new    " width="4.045" height="3.972"/>
</g><g transform="translate(193.578125,213)">
<g>
	<circle fill="#FFFFFF" cx="10.09" cy="10.088" r="9.588"/>
	<circle fill="none" stroke="#000000" stroke-miterlimit="10" stroke-dasharray="3.0116,3.0116" cx="10.09" cy="10.088" r="9.588"/>
</g>
</g></svg>
